<svg xmlns="http://www.w3.org/2000/svg" viewBox="0 0 300 46.42"><title>TW logo</title><g id="Layer_2" data-name="Layer 2"><g id="Layer_1-2" data-name="Layer 1"><path d="M291.57,14.71a4.22,4.22,0,1,1,4.22,4.23A4.21,4.21,0,0,1,291.57,14.71Zm7.32,0a3.11,3.11,0,1,0-6.21,0,3.11,3.11,0,1,0,6.21,0Zm-1,2.31h-1.09l-1-1.92H295V17h-.95V12.46h2.19c1.2,0,1.77.32,1.77,1.4,0,.83-.44,1.18-1.24,1.24Zm-1.61-2.61c.52,0,.87-.11.87-.67s-.65-.58-1.09-.58h-1v1.25Z"/><path d="M26.94,6.35H17.22V37.43H9.72V6.35H0V0H26.94Z"/><path d="M36.9,13.28a12.94,12.94,0,0,1,8-3.37c2.94,0,7.07,1.78,7.07,8.42v19.1H44.88V21.22c0-2.17.15-5.59-2.93-5.59-2.07,0-3.7,1.5-5.05,2.94V37.43H29.78V0H36.9Z"/><path d="M54.94,24c0-7.17,3.94-14,11.83-14S78.61,16.79,78.61,24s-4,14-11.84,14S54.94,31.08,54.94,24ZM71.3,24c0-3.37-.68-8.81-4.53-8.81S62.25,20.59,62.25,24s.67,8.8,4.52,8.8S71.3,27.32,71.3,24Z"/><path d="M96.84,34.64a13,13,0,0,1-8,3.36c-2.94,0-7.08-1.77-7.08-8.41V10.49h7.12V26.7c0,2.16-.14,5.58,2.94,5.58,2.07,0,3.7-1.49,5-2.94V10.49H104V37.43H96.84Z"/><path d="M115.6,28.58a1.83,1.83,0,0,0-2,1.68c0,3.51,18.67-2.6,18.67,7.94,0,4-2.7,8.22-13.38,8.22-9.28,0-12.46-3.27-12.46-6.78,0-2.07,1.3-3.13,2.94-4.09a4.26,4.26,0,0,1-2.12-3.41c0-2.65,1.44-4,3.51-5.39a10.15,10.15,0,0,1-3.36-7.41c0-6,5.05-9.43,10.87-9.43a12.89,12.89,0,0,1,6.64,1.88,6.58,6.58,0,0,1,4.85-2.22,9.62,9.62,0,0,1,2.07.2v5a6.24,6.24,0,0,0-2.26-.58,3.85,3.85,0,0,0-1.92.58,10.81,10.81,0,0,1,1.44,4.57c0,6-5,9.43-10.82,9.43Zm-2.26,8.9a1.84,1.84,0,0,0-1.11,1.68c0,2.5,5,2.65,6.74,2.65,1.2,0,7.46-.15,7.46-2.31,0-1.4-1-1.26-5.2-1.5Zm4.91-13.43c3,0,3.85-2.45,3.85-5s-1.16-4.52-3.85-4.52c-3,0-3.9,2.5-3.9,5S115.5,24.05,118.25,24.05Z"/><path d="M142,13.28a12.94,12.94,0,0,1,8-3.37c2.93,0,7.07,1.78,7.07,8.42v19.1H150V21.22c0-2.17.14-5.59-2.94-5.59-2.07,0-3.7,1.5-5.05,2.94V37.43h-7.12V0H142Z"/><path d="M170.06,10.49h5.53v5.92h-5.53V30.12c0,1.29.38,2.64,2.69,2.64a5.07,5.07,0,0,0,2.84-1v5.44A16.7,16.7,0,0,1,171,38c-4.42,0-8.08-2.5-8.08-8.37V16.41h-3.32V10.49h3.32V3.75h7.12Z"/><path d="M205.22,37.43h-3.85L195,6.83h-.1l-6.69,30.6h-3.85L176.55,0h3.75l6.16,30.21h.1L193.29,0H197l6.4,30.21h.09L210.08,0h3.71Z"/><path d="M212.15,24.15c0-10,4.72-14,10.63-14s10.64,4.09,10.64,14.05S228.7,38.2,222.78,38.2,212.15,34.11,212.15,24.15Zm17.51,0c0-4.52-1.1-10.87-6.88-10.87s-6.88,6.35-6.88,10.87S217,35,222.78,35,229.66,28.67,229.66,24.15Z"/><path d="M240.1,16.6h.1c1.49-3.18,3.41-6.11,7.36-6.11H249V13.9c-4.9-.67-7.46,4.62-8.9,8.47V37.43h-3.75V10.87h3.75Z"/><path d="M255.78,23.19l9.87-12.32h4.18L262.52,20l8.42,17.47h-4L260.11,23l-4.33,5.34v9.09H252V0h3.75Z"/><path d="M287.2,16.79c-1.49-2.21-3.27-3.51-6.06-3.51-2.46,0-4.77,1.25-4.77,3.94,0,6.5,14,3.66,14,12.61,0,5.19-3.7,8.37-8.7,8.37a10.9,10.9,0,0,1-9.91-5.58l3-1.88A7.42,7.42,0,0,0,281.67,35c2.74,0,5.19-1.49,5.19-4.52,0-6.69-14-3.51-14-13,0-4.57,3.76-7.36,8.13-7.36a10.18,10.18,0,0,1,8.85,4.62Z"/></g></g></svg>